<?xml version="1.0" encoding="utf-8"?>
<!-- Generator: Adobe Illustrator 19.2.0, SVG Export Plug-In . SVG Version: 6.00 Build 0)  -->
<svg version="1.1" id="Layer_1" focusable="false" xmlns="http://www.w3.org/2000/svg" xmlns:xlink="http://www.w3.org/1999/xlink"
	 x="0px" y="0px" viewBox="0 0 24 24" style="enable-background:new 0 0 24 24;" xml:space="preserve">
<style type="text/css">
	.st0{fill:#FFFFFF;}
	.st1{fill:url(#SVGID_1_);}
</style>
<path class="st0" d="M21.2,24H2.8C1.3,24,0,22.7,0,21.2L0,2.8C0,1.3,1.3,0,2.8,0l18.3,0C22.7,0,24,1.3,24,2.8v18.3
	C24,22.7,22.7,24,21.2,24z"/>
<linearGradient id="SVGID_1_" gradientUnits="userSpaceOnUse" x1="2" y1="11.93" x2="22" y2="11.93">
	<stop  offset="0" style="stop-color:#036AAB"/>
	<stop  offset="1" style="stop-color:#47A6DD"/>
</linearGradient>
<path class="st1" d="M22,5.7l-4.6-3.9l-1.3,1.5l4.6,3.9L22,5.7z M7.9,3.4L6.6,1.9L2,5.7l1.3,1.5C3.3,7.2,7.9,3.4,7.9,3.4z M12,4
	c-5,0-9,4-9,9s4,9,9,9c5,0,9-4,9-9S17,4,12,4z M12,20c-3.9,0-7-3.1-7-7s3.1-7,7-7s7,3.1,7,7S15.9,20,12,20z M10.5,14.5l-2.1-2.1
	l-1.1,1.1l3.2,3.2l6-6l-1.1-1.1C15.5,9.6,10.5,14.5,10.5,14.5z"/>
</svg>
